<svg xmlns="http://www.w3.org/2000/svg" viewBox="0 0 257.21 29.65">
    <defs>
        <style>.cls-1{fill:#0282c6;}.cls-2{fill:#80c342;}</style>
    </defs>
    <title>Asset 1</title>
    <g id="Layer_2" data-name="Layer 2">
        <g id="Layer_1-2" data-name="Layer 1">
            <path class="cls-1"
                  d="M46.29,15h-2.9v6.59h-4V3.06h8.68a6.89,6.89,0,0,1,3.31.77A5.28,5.28,0,0,1,53.6,6,6.31,6.31,0,0,1,54.35,9a5.64,5.64,0,0,1-1.18,3.7,5.17,5.17,0,0,1-2.88,1.8l4.17,7.07H49.93Zm3.25-8a2.75,2.75,0,0,0-2-.77H43.39v5.62h4.15A2.66,2.66,0,0,0,50.32,9,2.73,2.73,0,0,0,49.54,7Z"/>
            <path class="cls-1"
                  d="M57.5,6.11a2.07,2.07,0,0,1-.62-1.49,2,2,0,0,1,.62-1.48A2.1,2.1,0,0,1,59,2.53a2,2,0,0,1,1.5.61,2,2,0,0,1,.62,1.48,2.07,2.07,0,0,1-.62,1.49,2,2,0,0,1-1.5.62A2.07,2.07,0,0,1,57.5,6.11Zm-.26,2.07h3.53V21.61H57.24Z"/>
            <path class="cls-1" d="M62.36,8.18h3.78l3.5,9.34,3.51-9.34H77L71.56,21.61H67.75Z"/>
            <path class="cls-1"
                  d="M78.57,11.34A6.65,6.65,0,0,1,81,8.79a6.88,6.88,0,0,1,3.59-.95,6.61,6.61,0,0,1,3.5.93,6.43,6.43,0,0,1,2.38,2.62,8.49,8.49,0,0,1,.85,3.85V16h-10a3.59,3.59,0,0,0,1.19,2.34,3.8,3.8,0,0,0,2.67.94,5.69,5.69,0,0,0,2-.36,4.6,4.6,0,0,0,1.63-1l1.55,2.24a6.76,6.76,0,0,1-2.44,1.31,10.55,10.55,0,0,1-3.09.46,7.6,7.6,0,0,1-3.67-.88,6.39,6.39,0,0,1-2.57-2.48,7.29,7.29,0,0,1-.93-3.72A7.12,7.12,0,0,1,78.57,11.34Zm3.72,0a3.28,3.28,0,0,0-.94,2h6.59a3.16,3.16,0,0,0-.91-2,3.09,3.09,0,0,0-2.4-.88A3.13,3.13,0,0,0,82.29,11.37Z"/>
            <path class="cls-1"
                  d="M93.92,8.18h3.53V10a5.94,5.94,0,0,1,1.89-1.54,5,5,0,0,1,2.39-.63v3.28a4.73,4.73,0,0,0-1-.11,4.51,4.51,0,0,0-1.9.46,3.15,3.15,0,0,0-1.41,1.1v9H93.92Z"/>
            <path class="cls-1"
                  d="M104.29,17.46a6.91,6.91,0,0,0,2.11,1.28,6.6,6.6,0,0,0,2.53.56,2.61,2.61,0,0,0,1.68-.46,1.52,1.52,0,0,0,.57-1.25,1.14,1.14,0,0,0-.65-1.07,8.66,8.66,0,0,0-2-.64,18,18,0,0,1-2.67-.65A4.41,4.41,0,0,1,104,14.07a3,3,0,0,1-.78-2.22,3.35,3.35,0,0,1,.66-2,4.35,4.35,0,0,1,1.9-1.47,7.4,7.4,0,0,1,2.95-.54,8.53,8.53,0,0,1,5.42,1.82l-1.42,2.41A4.83,4.83,0,0,0,111,11a5.77,5.77,0,0,0-2.26-.45,2.8,2.8,0,0,0-1.53.38,1.14,1.14,0,0,0-.59,1,.84.84,0,0,0,.59.79,10.25,10.25,0,0,0,2,.53,19.3,19.3,0,0,1,2.68.7,4.5,4.5,0,0,1,1.91,1.3,3.55,3.55,0,0,1,.8,2.47,3.77,3.77,0,0,1-.68,2.21,4.41,4.41,0,0,1-2,1.55,8,8,0,0,1-3.13.56,10.19,10.19,0,0,1-3.35-.55,7.54,7.54,0,0,1-2.65-1.49Z"/>
            <path class="cls-1"
                  d="M117.45,6.11a2.07,2.07,0,0,1-.62-1.49,2,2,0,0,1,.62-1.48,2.1,2.1,0,0,1,1.49-.61,2.08,2.08,0,0,1,1.5.61,2,2,0,0,1,.61,1.48,2.11,2.11,0,0,1-3.6,1.49Zm-.26,2.07h3.53V21.61h-3.53Z"/>
            <path class="cls-1"
                  d="M133.45,19.88a5.34,5.34,0,0,1-1.84,1.55,5.05,5.05,0,0,1-2.3.54,5.72,5.72,0,0,1-3.06-.84,5.53,5.53,0,0,1-2.12-2.42,8.66,8.66,0,0,1-.77-3.79,8.63,8.63,0,0,1,.77-3.75,5.8,5.8,0,0,1,2.11-2.46,5.54,5.54,0,0,1,3.07-.87,5.21,5.21,0,0,1,4.14,2.06V3.06H137V21.61h-3.56Zm0-7.63a3.36,3.36,0,0,0-1.3-1.23,3.58,3.58,0,0,0-1.75-.48A3,3,0,0,0,128,11.75a5,5,0,0,0-1,3.17,5,5,0,0,0,1,3.14,3,3,0,0,0,2.45,1.21,3.58,3.58,0,0,0,1.75-.48,3.36,3.36,0,0,0,1.3-1.23Z"/>
            <path class="cls-1"
                  d="M140.54,11.34A6.75,6.75,0,0,1,143,8.79a6.88,6.88,0,0,1,3.59-.95,6.61,6.61,0,0,1,3.5.93,6.43,6.43,0,0,1,2.38,2.62,8.49,8.49,0,0,1,.85,3.85V16h-10a3.61,3.61,0,0,0,1.2,2.34,3.77,3.77,0,0,0,2.67.94,5.69,5.69,0,0,0,2-.36,4.6,4.6,0,0,0,1.63-1l1.55,2.24a6.85,6.85,0,0,1-2.44,1.31,10.6,10.6,0,0,1-3.09.46,7.6,7.6,0,0,1-3.67-.88,6.33,6.33,0,0,1-2.57-2.48,7.29,7.29,0,0,1-.93-3.72A7.22,7.22,0,0,1,140.54,11.34Zm3.73,0a3.23,3.23,0,0,0-.94,2h6.59a3.16,3.16,0,0,0-.91-2,3.66,3.66,0,0,0-4.74,0Z"/>
            <path class="cls-2" d="M160.84,3.06h3.94V21.61h-3.94Z"/>
            <path class="cls-2"
                  d="M177.44,13.15a2.69,2.69,0,0,0-.64-2,2.56,2.56,0,0,0-1.84-.61,3.36,3.36,0,0,0-1.77.48,4.54,4.54,0,0,0-1.29,1.17v9.42h-3.53V8.18h3.53V9.93a5.76,5.76,0,0,1,1.95-1.47,6,6,0,0,1,2.75-.62A4.33,4.33,0,0,1,179.87,9a4.36,4.36,0,0,1,1.1,3.15v9.48h-3.53Z"/>
            <path class="cls-2"
                  d="M184.83,17.46a6.91,6.91,0,0,0,2.11,1.28,6.64,6.64,0,0,0,2.54.56,2.61,2.61,0,0,0,1.68-.46,1.52,1.52,0,0,0,.57-1.25,1.14,1.14,0,0,0-.66-1.07,8.35,8.35,0,0,0-2-.64,18.35,18.35,0,0,1-2.67-.65,4.37,4.37,0,0,1-1.83-1.16,3,3,0,0,1-.78-2.22,3.34,3.34,0,0,1,.65-2,4.38,4.38,0,0,1,1.91-1.47,7.35,7.35,0,0,1,2.94-.54,8.49,8.49,0,0,1,5.42,1.82l-1.41,2.41A5,5,0,0,0,191.55,11a5.82,5.82,0,0,0-2.27-.45,2.8,2.8,0,0,0-1.53.38,1.13,1.13,0,0,0-.58,1,.83.83,0,0,0,.58.79,10.4,10.4,0,0,0,2,.53,19.68,19.68,0,0,1,2.68.7,4.47,4.47,0,0,1,1.9,1.3,3.55,3.55,0,0,1,.81,2.47,3.85,3.85,0,0,1-.68,2.21,4.47,4.47,0,0,1-2,1.55,8.06,8.06,0,0,1-3.13.56,10.1,10.1,0,0,1-3.35-.55,7.59,7.59,0,0,1-2.66-1.49Z"/>
            <path class="cls-2"
                  d="M198,6.11a2,2,0,0,1-.63-1.49A2,2,0,0,1,198,3.14a2.11,2.11,0,0,1,3.6,1.48A2.1,2.1,0,0,1,201,6.11a2.11,2.11,0,0,1-3,0Zm-.27,2.07h3.53V21.61h-3.53Z"/>
            <path class="cls-2"
                  d="M206.07,22.69a5.39,5.39,0,0,0,4.2,1.67,4.1,4.1,0,0,0,2.6-.85,3.23,3.23,0,0,0,1.1-2.74V19.41A6,6,0,0,1,212.11,21a4.86,4.86,0,0,1-2.28.55,5.9,5.9,0,0,1-3.05-.79,5.44,5.44,0,0,1-2.11-2.33,8.31,8.31,0,0,1-.76-3.72,8.22,8.22,0,0,1,.76-3.68,5.54,5.54,0,0,1,2.1-2.35,5.78,5.78,0,0,1,3.06-.81,5.09,5.09,0,0,1,2.28.53A5.61,5.61,0,0,1,214,9.9V8.18h3.56V20.69q0,3.48-2.13,4.92a8.83,8.83,0,0,1-5.13,1.45,10.76,10.76,0,0,1-3.15-.43,8,8,0,0,1-2.63-1.44ZM214,12.25A3.64,3.64,0,0,0,212.68,11a3.52,3.52,0,0,0-1.74-.48,3,3,0,0,0-2.46,1.12,4.6,4.6,0,0,0-.93,3,4.61,4.61,0,0,0,.93,3,3.06,3.06,0,0,0,2.46,1.12,3.43,3.43,0,0,0,1.72-.5A3.6,3.6,0,0,0,214,17.11Z"/>
            <path class="cls-2"
                  d="M230.13,13.09a2.59,2.59,0,0,0-.64-2,2.69,2.69,0,0,0-1.87-.58,3.36,3.36,0,0,0-1.75.48,4.21,4.21,0,0,0-1.3,1.17v9.42H221V3.06h3.54V9.93a5.7,5.7,0,0,1,2-1.47,6.09,6.09,0,0,1,2.76-.62A4.37,4.37,0,0,1,232.56,9a4.25,4.25,0,0,1,1.1,3.11v9.54h-3.53Z"/>
            <path class="cls-2"
                  d="M238.83,21a3.86,3.86,0,0,1-1-2.83V10.87h-2.23V8.18h2.23V4.51h3.56V8.18h2.72v2.69h-2.72v6.76a2,2,0,0,0,.33,1.18,1,1,0,0,0,.89.46,2.36,2.36,0,0,0,.72-.11,1.24,1.24,0,0,0,.5-.28l.75,2.35a4.86,4.86,0,0,1-2.94.74A3.84,3.84,0,0,1,238.83,21Z"/>
            <path class="cls-2"
                  d="M246.92,17.46A6.91,6.91,0,0,0,249,18.74a6.64,6.64,0,0,0,2.53.56,2.62,2.62,0,0,0,1.69-.46,1.52,1.52,0,0,0,.57-1.25,1.14,1.14,0,0,0-.66-1.07,8.35,8.35,0,0,0-2-.64,18,18,0,0,1-2.67-.65,4.47,4.47,0,0,1-1.84-1.16,3.07,3.07,0,0,1-.77-2.22,3.34,3.34,0,0,1,.65-2,4.4,4.4,0,0,1,1.9-1.47,7.43,7.43,0,0,1,3-.54,8.49,8.49,0,0,1,5.42,1.82l-1.41,2.41A5,5,0,0,0,253.64,11a5.82,5.82,0,0,0-2.27-.45,2.8,2.8,0,0,0-1.53.38,1.13,1.13,0,0,0-.58,1,.83.83,0,0,0,.58.79,10.47,10.47,0,0,0,2,.53,19.48,19.48,0,0,1,2.69.7,4.53,4.53,0,0,1,1.9,1.3,3.55,3.55,0,0,1,.81,2.47,3.85,3.85,0,0,1-.68,2.21,4.47,4.47,0,0,1-2,1.55,8.1,8.1,0,0,1-3.13.56,10.1,10.1,0,0,1-3.35-.55,7.59,7.59,0,0,1-2.66-1.49Z"/>
            <path class="cls-1"
                  d="M21.12,18.51a8.85,8.85,0,0,0,4.38,4.4,2,2,0,0,1,1,1.05l0-.05a12.79,12.79,0,0,0-5.63-6c.08.21.15.42.25.62m-8-2.05a13,13,0,0,0-3.68,1c-.26.12-.52.26-.78.4a12.92,12.92,0,0,0-5.49,5.72l-.13.27h0a2,2,0,0,0,0,1.69,2,2,0,0,0,2.67,1l.09,0v0h0a2,2,0,0,0,1-1,8.79,8.79,0,0,1,4.39-4.38c.2-.09.39-.16.59-.23a8.77,8.77,0,0,1,6.1,0c-.13-.25-.27-.5-.38-.76a12.9,12.9,0,0,1-1.05-3.71,12.78,12.78,0,0,0-1.64-.11,12.29,12.29,0,0,0-1.6.11m-4.49-4.7c-.07-.18-.13-.36-.21-.54C6.62,7.29,4,7.21,3.28,6.15a12.73,12.73,0,0,0,5.39,5.61M22.83,4.14a8.79,8.79,0,0,1-4.39,4.38l-.56.22a8.74,8.74,0,0,1-6.17,0c.15.27.29.53.42.81a13,13,0,0,1,1,3.65,12.7,12.7,0,0,0,3.26,0,12.8,12.8,0,0,0,3.66-1,8.79,8.79,0,0,0,.81-.41c3.71-2,8.07-7.6,4.38-8.72a2.08,2.08,0,0,0-.6-.09,2,2,0,0,0-1.85,1.17m-11-1A3.12,3.12,0,1,0,14.93,0a3.11,3.11,0,0,0-3.12,3.12m-.06,23.41a3.12,3.12,0,1,0,3.12-3.12,3.12,3.12,0,0,0-3.12,3.12"/>
            <path class="cls-2"
                  d="M11.13,21.16a8.85,8.85,0,0,0-4.4,4.38,2,2,0,0,1-.94,1v0a12.78,12.78,0,0,0,5.93-5.6c-.2.07-.39.14-.59.23m8.95-9a12.89,12.89,0,0,1-3.66,1,12.47,12.47,0,0,0,1,6.94c.11.26.25.51.38.76,1.23,2.3,4.41,5.56,6.69,5.78H25a1.83,1.83,0,0,0,1.36-.86,2,2,0,0,0-.84-2.94,8.81,8.81,0,0,1-4.38-4.4c-.1-.2-.17-.41-.25-.62a8.79,8.79,0,0,1,0-6.11,8.79,8.79,0,0,1-.81.41M0,14.86a3.12,3.12,0,1,0,3.12-3.12A3.13,3.13,0,0,0,0,14.86m23.3,0a3.12,3.12,0,1,0,3.12-3.12,3.13,3.13,0,0,0-3.12,3.12M17.87,8.74l.55-.22c4-1.78,4-4.44,5.06-5.17a12.73,12.73,0,0,0-5.61,5.39m-14.8-3a1.88,1.88,0,0,0,1,1.05,8.87,8.87,0,0,1,4.39,4.4l.21.54a8.8,8.8,0,0,1,0,6.13c.26-.14.51-.28.78-.4a13,13,0,0,1,3.68-1,12.63,12.63,0,0,0,0-3.25,13,13,0,0,0-1-3.65c-.13-.28-.27-.54-.42-.81a12.92,12.92,0,0,0-6-5.59A2,2,0,0,0,4.9,3a2,2,0,0,0-1.83,2.8"/>
        </g>
    </g>
</svg>