<svg id="Layer_1" data-name="Layer 1" xmlns="http://www.w3.org/2000/svg" viewBox="0 0 247.2 76.45"><defs><style>.cls-1{fill:#fff;}</style></defs><title>Riverside_Insights_White</title><path class="cls-1" d="M57.84,78.67A17.69,17.69,0,0,0,53.16,74,12.33,12.33,0,0,0,57.84,78.67Z" transform="translate(-21.4 -33.95)"/><path class="cls-1" d="M46.14,75.8a19.37,19.37,0,0,1-1.43-4.91,16,16,0,0,0-4.08.06h0a18,18,0,0,0-5.17,1.45c-.36.16-.71.34-1.05.53A18,18,0,0,0,26.64,81l-.09.19,0,.07v.06l-.09.12a2.25,2.25,0,0,0,0,1.88,2.29,2.29,0,0,0,2.92,1.2l.24-.13a2.24,2.24,0,0,0,1.09-1.11,13.43,13.43,0,0,1,6.71-6.68c.26-.12.53-.22.79-.32l.1,0A13.54,13.54,0,0,1,46.14,75.8Z" transform="translate(-21.4 -33.95)"/><path class="cls-1" d="M28.14,57.44a17.72,17.72,0,0,0,4.43,4.42A11.07,11.07,0,0,0,28.14,57.44Z" transform="translate(-21.4 -33.95)"/><path class="cls-1" d="M39.66,60.14A19.29,19.29,0,0,1,41.11,65a18.88,18.88,0,0,0,4.12,0,18.16,18.16,0,0,0,5.15-1.46c.38-.18.75-.38,1.13-.58,3.87-2.09,8.36-7.06,8.07-9.89A1.89,1.89,0,0,0,58,51.44a2.35,2.35,0,0,0-2.81,1.22,13.45,13.45,0,0,1-6.71,6.69c-.22.1-.45.18-.67.27l-.17.06A13.52,13.52,0,0,1,39.66,60.14Z" transform="translate(-21.4 -33.95)"/><path class="cls-1" d="M43.12,55.46a4.54,4.54,0,1,0-4.54-4.54A4.54,4.54,0,0,0,43.12,55.46Z" transform="translate(-21.4 -33.95)"/><path class="cls-1" d="M43,80.43A4.55,4.55,0,1,0,47.58,85,4.54,4.54,0,0,0,43,80.43Z" transform="translate(-21.4 -33.95)"/><path class="cls-1" d="M37.7,77.39a12.58,12.58,0,0,0-6.27,6.26l-.15.29c.22-.13.43-.27.64-.41a18.23,18.23,0,0,0,5.61-5.62l.37-.6-.2.08Z" transform="translate(-21.4 -33.95)"/><path class="cls-1" d="M59.73,81.35a2.68,2.68,0,0,0-1.35-1.42,13.1,13.1,0,0,1-6.5-6.52c-.13-.29-.24-.59-.35-.89s-.25-.73-.35-1.1a13.13,13.13,0,0,1,0-6.9c0-.16.08-.32.13-.48-.2.11-.41.21-.62.3a18.79,18.79,0,0,1-5.21,1.51l0,.38a18.53,18.53,0,0,0,0,3.49,5.48,5.48,0,0,0,0,.57A18.43,18.43,0,0,0,47,75.62c.15.34.33.67.5,1l0,.1a12.51,12.51,0,0,0,.67,1.1c2,3.07,5.94,6.9,8.87,7.17h.64a2.33,2.33,0,0,0,1.76-1.13,2.63,2.63,0,0,0,.35-2.21C59.81,81.54,59.76,81.45,59.73,81.35Z" transform="translate(-21.4 -33.95)"/><path class="cls-1" d="M30.49,68a4.55,4.55,0,1,0-4.55,4.55A4.55,4.55,0,0,0,30.49,68Z" transform="translate(-21.4 -33.95)"/><path class="cls-1" d="M59.84,63.46A4.55,4.55,0,1,0,64.38,68,4.54,4.54,0,0,0,59.84,63.46Z" transform="translate(-21.4 -33.95)"/><path class="cls-1" d="M54.14,52.83c.15-.28.29-.53.43-.77-.24.14-.47.29-.7.44A18.2,18.2,0,0,0,48.34,58l-.37.59.13-.06A11.45,11.45,0,0,0,54.14,52.83Z" transform="translate(-21.4 -33.95)"/><path class="cls-1" d="M26.36,55.16a2.31,2.31,0,0,0,1.06.92,13.1,13.1,0,0,1,6.5,6.52c.09.21.18.43.26.65l0,.15a10.27,10.27,0,0,1,.36,1.11,13.07,13.07,0,0,1,0,6.91c0,.16-.08.31-.13.47l.6-.29a18.93,18.93,0,0,1,5.23-1.49l0-.38a18,18,0,0,0,0-3.52c0-.19,0-.39-.05-.58a18.68,18.68,0,0,0-1.5-5.24c-.18-.4-.39-.8-.59-1.16s-.43-.76-.67-1.13a18.46,18.46,0,0,0-7.9-6.9A2.6,2.6,0,0,0,28.53,51a2.74,2.74,0,0,0-2.27,1.25,2.55,2.55,0,0,0-.17,2.47A3.72,3.72,0,0,0,26.36,55.16Z" transform="translate(-21.4 -33.95)"/><path class="cls-1" d="M95,54.2H90.28V64.89H83.87V34.81H98a11.08,11.08,0,0,1,5.36,1.24,8.43,8.43,0,0,1,3.52,3.45,10.2,10.2,0,0,1,1.22,5,9,9,0,0,1-1.92,6,8.41,8.41,0,0,1-4.67,2.93l6.77,11.46h-7.35Zm5.28-13A4.45,4.45,0,0,0,97,40H90.28v9.11H97a4.29,4.29,0,0,0,4.51-4.56A4.42,4.42,0,0,0,100.25,41.19Z" transform="translate(-21.4 -33.95)"/><path class="cls-1" d="M113.17,39.74a3.27,3.27,0,0,1-1-2.41,3.21,3.21,0,0,1,1-2.39,3.46,3.46,0,0,1,4.85,0,3.26,3.26,0,0,1,1,2.39,3.43,3.43,0,0,1-3.43,3.43A3.27,3.27,0,0,1,113.17,39.74Zm-.43,3.36h5.73V64.89h-5.73Z" transform="translate(-21.4 -33.95)"/><path class="cls-1" d="M121,43.1h6.13l5.68,15.16,5.69-15.16h6.17L136,64.89h-6.18Z" transform="translate(-21.4 -33.95)"/><path class="cls-1" d="M147.33,48.23a10.89,10.89,0,0,1,4-4.13,11.2,11.2,0,0,1,5.82-1.54,10.74,10.74,0,0,1,5.68,1.51,10.23,10.23,0,0,1,3.86,4.24,13.66,13.66,0,0,1,1.38,6.25v1.26h-16.2a6,6,0,0,0,1.94,3.8,6.17,6.17,0,0,0,4.33,1.52,9.15,9.15,0,0,0,3.18-.58A7.46,7.46,0,0,0,164,59l2.53,3.62a10.9,10.9,0,0,1-4,2.12,16.65,16.65,0,0,1-5,.75,12.4,12.4,0,0,1-6-1.42,10.35,10.35,0,0,1-4.17-4,12.54,12.54,0,0,1-.07-11.8Zm6,.06a5.2,5.2,0,0,0-1.52,3.2h10.68a5.15,5.15,0,0,0-1.47-3.18,5.95,5.95,0,0,0-7.69,0Z" transform="translate(-21.4 -33.95)"/><path class="cls-1" d="M172.23,43.1H178v3a9.57,9.57,0,0,1,3.07-2.5,8.1,8.1,0,0,1,3.88-1v5.32a8,8,0,0,0-1.58-.18,7.51,7.51,0,0,0-3.07.74,5.18,5.18,0,0,0-2.3,1.79V64.89h-5.72Z" transform="translate(-21.4 -33.95)"/><path class="cls-1" d="M189.05,58.17a11.42,11.42,0,0,0,3.43,2.07,10.68,10.68,0,0,0,4.1.9,4.27,4.27,0,0,0,2.73-.74,2.5,2.5,0,0,0,.92-2,1.83,1.83,0,0,0-1.06-1.73,13.22,13.22,0,0,0-3.31-1,31,31,0,0,1-4.33-1.05,7.25,7.25,0,0,1-3-1.88,5,5,0,0,1-1.26-3.61,5.49,5.49,0,0,1,1.06-3.25,7,7,0,0,1,3.09-2.37,12,12,0,0,1,4.78-.88A13.8,13.8,0,0,1,205,45.51l-2.3,3.91a8.17,8.17,0,0,0-2.77-1.81,9.51,9.51,0,0,0-3.68-.72,4.49,4.49,0,0,0-2.48.62,1.81,1.81,0,0,0-.94,1.57,1.35,1.35,0,0,0,.94,1.28,18,18,0,0,0,3.2.86,30.56,30.56,0,0,1,4.36,1.13,7.6,7.6,0,0,1,3.09,2.11,5.8,5.8,0,0,1,1.3,4,6.17,6.17,0,0,1-1.1,3.6,7.22,7.22,0,0,1-3.25,2.51,13,13,0,0,1-5.07.9,16.72,16.72,0,0,1-5.44-.88,12.18,12.18,0,0,1-4.3-2.43Z" transform="translate(-21.4 -33.95)"/><path class="cls-1" d="M210.4,39.74a3.3,3.3,0,0,1-1-2.41,3.24,3.24,0,0,1,1-2.39,3.35,3.35,0,0,1,2.42-1,3.3,3.3,0,0,1,2.43,1,3.26,3.26,0,0,1,1,2.39,3.32,3.32,0,0,1-1,2.41,3.25,3.25,0,0,1-2.43,1A3.3,3.3,0,0,1,210.4,39.74ZM210,43.1h5.73V64.89H210Z" transform="translate(-21.4 -33.95)"/><path class="cls-1" d="M236.36,62.09a8.74,8.74,0,0,1-3,2.5,8.09,8.09,0,0,1-3.72.88,9.3,9.3,0,0,1-5-1.35,9,9,0,0,1-3.45-3.93A14,14,0,0,1,220,54,14,14,0,0,1,221.23,48a9.42,9.42,0,0,1,3.42-4,9.08,9.08,0,0,1,5-1.4,8.4,8.4,0,0,1,3.7.86,8.55,8.55,0,0,1,3,2.48V34.81h5.77V64.89h-5.77Zm0-12.38a5.52,5.52,0,0,0-2.12-2,5.77,5.77,0,0,0-2.84-.78,4.79,4.79,0,0,0-4,2A8.09,8.09,0,0,0,225.89,54a8,8,0,0,0,1.54,5.09,4.8,4.8,0,0,0,4,2,5.77,5.77,0,0,0,2.84-.78,5.59,5.59,0,0,0,2.12-2Z" transform="translate(-21.4 -33.95)"/><path class="cls-1" d="M247.86,48.23a10.89,10.89,0,0,1,4-4.13,11.2,11.2,0,0,1,5.82-1.54,10.76,10.76,0,0,1,5.68,1.51,10.23,10.23,0,0,1,3.86,4.24,13.65,13.65,0,0,1,1.37,6.25v1.26H252.41a5.92,5.92,0,0,0,1.94,3.8,6.15,6.15,0,0,0,4.33,1.52,9.23,9.23,0,0,0,3.18-.58A7.46,7.46,0,0,0,264.5,59L267,62.6a11,11,0,0,1-4,2.12,16.7,16.7,0,0,1-5,.75,12.4,12.4,0,0,1-6-1.42,10.35,10.35,0,0,1-4.17-4,12.46,12.46,0,0,1-.07-11.8Zm6,.06a5.2,5.2,0,0,0-1.52,3.2h10.68a5,5,0,0,0-5.37-4.6A5,5,0,0,0,253.9,48.29Z" transform="translate(-21.4 -33.95)"/><path class="cls-1" d="M83.87,71.47h6.41v30.09H83.87Z" transform="translate(-21.4 -33.95)"/><path class="cls-1" d="M110.8,87.83a4.33,4.33,0,0,0-1-3.24,4.14,4.14,0,0,0-3-1,5.4,5.4,0,0,0-2.86.77,7.13,7.13,0,0,0-2.1,1.9v15.28H96.1V79.77h5.72v2.84a10,10,0,0,1,7.63-3.38,6.34,6.34,0,0,1,7.08,7v15.38H110.8Z" transform="translate(-21.4 -33.95)"/><path class="cls-1" d="M122.8,94.84a11.48,11.48,0,0,0,3.42,2.07,10.73,10.73,0,0,0,4.11.9,4.33,4.33,0,0,0,2.73-.74,2.5,2.5,0,0,0,.92-2,1.85,1.85,0,0,0-1.06-1.74,13.8,13.8,0,0,0-3.31-1,31.14,31.14,0,0,1-4.33-1,7.35,7.35,0,0,1-3-1.88A5,5,0,0,1,121,85.73a5.49,5.49,0,0,1,1.06-3.25,7,7,0,0,1,3.09-2.37,11.86,11.86,0,0,1,4.78-.88,13.76,13.76,0,0,1,8.79,3l-2.3,3.91a8,8,0,0,0-2.77-1.81,9.54,9.54,0,0,0-3.68-.72,4.49,4.49,0,0,0-2.48.62,1.82,1.82,0,0,0-1,1.57,1.34,1.34,0,0,0,1,1.27,17,17,0,0,0,3.2.87A30.56,30.56,0,0,1,135.09,89a7.41,7.41,0,0,1,3.09,2.11,5.8,5.8,0,0,1,1.3,4,6.25,6.25,0,0,1-1.1,3.6,7.28,7.28,0,0,1-3.25,2.51,13,13,0,0,1-5.07.9,16.72,16.72,0,0,1-5.44-.88,12.32,12.32,0,0,1-4.31-2.43Z" transform="translate(-21.4 -33.95)"/><path class="cls-1" d="M144.15,76.41a3.26,3.26,0,0,1-1-2.41,3.2,3.2,0,0,1,1-2.39,3.46,3.46,0,0,1,4.85,0A3.26,3.26,0,0,1,150,74a3.32,3.32,0,0,1-1,2.41,3.39,3.39,0,0,1-4.85,0Zm-.43,3.36h5.73v21.79h-5.73Z" transform="translate(-21.4 -33.95)"/><path class="cls-1" d="M157.25,103.31a8.69,8.69,0,0,0,6.81,2.71,6.68,6.68,0,0,0,4.22-1.38,5.26,5.26,0,0,0,1.78-4.44V98a9.52,9.52,0,0,1-3,2.53,7.84,7.84,0,0,1-3.7.9,9.56,9.56,0,0,1-4.94-1.29A8.72,8.72,0,0,1,155,96.35a15.14,15.14,0,0,1,0-12,9,9,0,0,1,3.41-3.81,9.42,9.42,0,0,1,5-1.31,8.18,8.18,0,0,1,3.7.86,9.1,9.1,0,0,1,3,2.48v-2.8h5.77v20.3q0,5.64-3.45,8a14.47,14.47,0,0,1-8.32,2.35,17.37,17.37,0,0,1-5.12-.7,12.78,12.78,0,0,1-4.26-2.33Zm12.81-16.93a6,6,0,0,0-4.92-2.77,4.94,4.94,0,0,0-4,1.81,8.72,8.72,0,0,0,0,9.81,5,5,0,0,0,4,1.82,5.52,5.52,0,0,0,2.8-.81,6,6,0,0,0,2.12-2Z" transform="translate(-21.4 -33.95)"/><path class="cls-1" d="M196.26,87.74a4.14,4.14,0,0,0-1-3.19,4.36,4.36,0,0,0-3-.94,5.46,5.46,0,0,0-2.84.77,7,7,0,0,0-2.12,1.9v15.28h-5.72V71.47h5.72V82.61a9.84,9.84,0,0,1,3.18-2.39,10,10,0,0,1,4.49-1,7.14,7.14,0,0,1,5.3,1.8A6.89,6.89,0,0,1,202,86.09v15.47h-5.73Z" transform="translate(-21.4 -33.95)"/><path class="cls-1" d="M210.38,100.55A6.25,6.25,0,0,1,208.8,96V84.15h-3.61V79.77h3.61v-6h5.77v6H219v4.38h-4.42V95.1a3.13,3.13,0,0,0,.55,1.91,1.67,1.67,0,0,0,1.44.76,3.68,3.68,0,0,0,1.17-.18,2.05,2.05,0,0,0,.81-.45l1.22,3.8a7.86,7.86,0,0,1-4.78,1.2A6.21,6.21,0,0,1,210.38,100.55Z" transform="translate(-21.4 -33.95)"/><path class="cls-1" d="M223.5,94.84a11.67,11.67,0,0,0,3.43,2.07,10.73,10.73,0,0,0,4.11.9,4.28,4.28,0,0,0,2.72-.74,2.47,2.47,0,0,0,.93-2,1.85,1.85,0,0,0-1.06-1.74,13.76,13.76,0,0,0-3.32-1,31.87,31.87,0,0,1-4.33-1,7.38,7.38,0,0,1-3-1.88,5,5,0,0,1-1.26-3.61,5.49,5.49,0,0,1,1.06-3.25,7,7,0,0,1,3.08-2.37,11.94,11.94,0,0,1,4.79-.88,13.78,13.78,0,0,1,8.79,3l-2.3,3.91a8,8,0,0,0-2.77-1.81,9.54,9.54,0,0,0-3.68-.72,4.49,4.49,0,0,0-2.48.62,1.82,1.82,0,0,0-1,1.57,1.34,1.34,0,0,0,1,1.27,17,17,0,0,0,3.2.87A30,30,0,0,1,235.79,89a7.29,7.29,0,0,1,3.09,2.11,5.76,5.76,0,0,1,1.31,4,6.25,6.25,0,0,1-1.1,3.6,7.28,7.28,0,0,1-3.25,2.51,13,13,0,0,1-5.07.9,16.72,16.72,0,0,1-5.44-.88A12.32,12.32,0,0,1,221,98.83Z" transform="translate(-21.4 -33.95)"/></svg>